With: Gerard Butler, Powers Boothe en Simmone Mackinnon

Twee werelden botsen. En de twee mannen die staan voor de waarden en de essentie van deze beschavingen... Attila, Koning van de Hunnen, is een idealist en ziet meer in zijn mensen dan zij in zichzelf zien. Terwijl de Hunnen met genoegen hun buurlanden plunderen en uitbuiten, ziet Attila in zijn geestesoog de mogelijkheid van een wereldrijk en een nieuwe wereldorde. De Romeinse generaal Flavius Aetius is de verpersoonlijking van het beste en het slechtste wat Rome in de laatste jaren van haar bestaan te bieden heeft. Hij wordt gemotiveerd door één groot doel: Rome moet wereldleider blijven.

A romanced story of Attila the Hun, since his childhood, when he lost his parents until his death. Attila is disclosed as a great leader...

------------------------ Dutch Friends ------------------------
---------------------------------------------------------------
- Bezoek ook eens mijn vrienden op:  http://www.Film-Test.nl --
----- voor mijn Nederlandse Sync. ondertitels ---- en meer ----
------- http://www.Film-Test.nl ---- voor Films en meer -------
---------------------------------------------------------------

General:

Complete name                    : AttilaAttila.avi
Format                           : AVI
Format/Info                      : Audio Video Interleave
File size                        : 2.16 GiB
Duration                         : 2h 50mn
Overall bit rate                 : 1 816 Kbps

Video:

Format                           : MPEG-4 Visual
Format profile                   : Simple@L3
Format settings, BVOP            : No
Format settings, QPel            : No
Format settings, GMC             : No warppoints
Format settings, Matrix          : Default (H.263)
Codec ID                         : XVID
Codec ID/Hint                    : XviD
Duration                         : 2h 50mn
Bit rate                         : 1 613 Kbps
Width                            : 704 pixels
Height                           : 396 pixels
Display aspect ratio             : 16:9
Frame rate                       : 25.000 fps
Color space                      : YUV
Chroma subsampling               : 4:2:0
Bit depth                        : 8 bits
Scan type                        : Progressive
Compression mode                 : Lossy
Bits/(Pixel*Frame)               : 0.231
Stream size                      : 1.92 GiB (89%)
Writing library                  : XviD 1.1.2 (UTC 2006-11-01)

Audio:

Format                           : AC-3
Format/Info                      : Audio Coding 3
Mode extension                   : CM (complete main)
Codec ID                         : 2000
Duration                         : 2h 50mn
Bit rate mode                    : Constant
Bit rate                         : 192 Kbps
Channel(s)                       : 2 channels
Channel positions                : Front: L R
Sampling rate                    : 48.0 KHz
Bit depth                        : 16 bits
Compression mode                 : Lossy
Stream size                      : 233 MiB (11%)
Alignment                        : Aligned on interleaves
Interleave, duration             : 32 ms (0.80 video frame)
Interleave, preload duration     : 32 ms

